<svg width="56" height="57" viewBox="0 0 56 57" fill="none" xmlns="http://www.w3.org/2000/svg">
<g id="shopping-cart" clip-path="url(#clip0_678_975)">
<path id="Vector" d="M20.9998 51.8332C22.2885 51.8332 23.3332 50.7885 23.3332 49.4998C23.3332 48.2112 22.2885 47.1665 20.9998 47.1665C19.7112 47.1665 18.6665 48.2112 18.6665 49.4998C18.6665 50.7885 19.7112 51.8332 20.9998 51.8332Z" stroke="#B0B6BF" stroke-width="4" stroke-linecap="round" stroke-linejoin="round"/>
<path id="Vector_2" d="M46.6668 51.8332C47.9555 51.8332 49.0002 50.7885 49.0002 49.4998C49.0002 48.2112 47.9555 47.1665 46.6668 47.1665C45.3782 47.1665 44.3335 48.2112 44.3335 49.4998C44.3335 50.7885 45.3782 51.8332 46.6668 51.8332Z" stroke="#B0B6BF" stroke-width="4" stroke-linecap="round" stroke-linejoin="round"/>
<path id="Vector_3" d="M2.3335 2.8335H11.6668L17.9202 34.0768C18.1335 35.1511 18.7179 36.1161 19.5711 36.8029C20.4243 37.4896 21.4918 37.8545 22.5868 37.8335H45.2668C46.3619 37.8545 47.4294 37.4896 48.2826 36.8029C49.1357 36.1161 49.7201 35.1511 49.9335 34.0768L53.6668 14.5002H14.0002" stroke="#B0B6BF" stroke-width="4" stroke-linecap="round" stroke-linejoin="round"/>
</g>
<defs>
<clipPath id="clip0_678_975">
<rect width="56" height="56" fill="white" transform="translate(0 0.5)"/>
</clipPath>
</defs>
</svg>
