<svg width="57" height="56" viewBox="0 0 57 56" fill="none" xmlns="http://www.w3.org/2000/svg">
<g id="edit">
<path id="Vector" d="M26.166 9.33325H9.83268C8.59501 9.33325 7.40802 9.82492 6.53285 10.7001C5.65768 11.5753 5.16602 12.7622 5.16602 13.9999V46.6666C5.16602 47.9043 5.65768 49.0912 6.53285 49.9664C7.40802 50.8416 8.59501 51.3333 9.83268 51.3333H42.4993C43.737 51.3333 44.924 50.8416 45.7992 49.9664C46.6743 49.0912 47.166 47.9043 47.166 46.6666V30.3333" stroke="#32297C" stroke-width="4" stroke-linecap="round" stroke-linejoin="round"/>
<path id="Vector_2" d="M43.666 5.83329C44.5943 4.90503 45.8533 4.38354 47.166 4.38354C48.4788 4.38354 49.7378 4.90503 50.666 5.83329C51.5943 6.76155 52.1158 8.02054 52.1158 9.33329C52.1158 10.646 51.5943 11.905 50.666 12.8333L28.4993 35L19.166 37.3333L21.4993 28L43.666 5.83329Z" stroke="#32297C" stroke-width="4" stroke-linecap="round" stroke-linejoin="round"/>
</g>
</svg>
