<svg width="57" height="56" viewBox="0 0 57 56" fill="none" xmlns="http://www.w3.org/2000/svg">
<g id="map-pin">
<path id="Vector" d="M49.5 23.3333C49.5 39.6666 28.5 53.6666 28.5 53.6666C28.5 53.6666 7.5 39.6666 7.5 23.3333C7.5 17.7637 9.71249 12.4223 13.6508 8.48401C17.589 4.54575 22.9305 2.33325 28.5 2.33325C34.0695 2.33325 39.411 4.54575 43.3492 8.48401C47.2875 12.4223 49.5 17.7637 49.5 23.3333Z" stroke="#32297C" stroke-width="4" stroke-linecap="round" stroke-linejoin="round"/>
<path id="Vector_2" d="M28.5 30.3333C32.366 30.3333 35.5 27.1992 35.5 23.3333C35.5 19.4673 32.366 16.3333 28.5 16.3333C24.634 16.3333 21.5 19.4673 21.5 23.3333C21.5 27.1992 24.634 30.3333 28.5 30.3333Z" stroke="#32297C" stroke-width="4" stroke-linecap="round" stroke-linejoin="round"/>
</g>
</svg>
